Coordinates
version=1
nRows=22
nColumns=24
inDegrees=yes

Units are S.I. units (second, meters, Newtons, ...)
Angles are in degrees.

endheader
time	pelvis_tilt	pelvis_list	pelvis_rotation	pelvis_tx	pelvis_ty	pelvis_tz	hip_flexion_r	hip_adduction_r	hip_rotation_r	knee_angle_r	ankle_angle_r	subtalar_angle_r	mtp_angle_r	hip_flexion_l	hip_adduction_l	hip_rotation_l	knee_angle_l	ankle_angle_l	subtalar_angle_l	mtp_angle_l	lumbar_extension	lumbar_bending	lumbar_rotation
      3.17500000	    -11.44723186	     -3.00043167	     -6.30812876	     -1.29981828	     -0.01575721	     -0.23509653	      8.64857974	      6.32323742	      5.60403509	    -11.73436155	      5.14453198	    -11.21555771	      9.19610090	     37.66409598	     -8.04004173	     -7.51150942	    -56.64974463	     -5.70595338	     -7.32793155	     12.47995609	      5.69967664	      4.62660548	      4.57183020
      3.18000000	    -11.43681383	     -2.88604138	     -6.52269533	     -1.29273643	     -0.01625337	     -0.23472085	      7.99954960	      6.16612753	      5.72775420	    -11.37978224	      5.43570279	    -11.01139801	      9.28756625	     38.13445610	     -8.04612668	     -7.59591779	    -55.47677183	     -5.47721343	     -6.95847549	     12.61729273	      5.63546035	      4.48739699	      4.83556693
      3.18500000	    -11.40306079	     -2.77952361	     -6.74310484	     -1.28569450	     -0.01681278	     -0.23440716	      7.33249949	      6.00645234	      5.85822646	    -11.03431922	      5.76186538	    -10.78539322	      9.41929770	     38.55240823	     -8.05832613	     -7.66600260	    -54.24896004	     -5.24281183	     -6.58687028	     12.75455914	      5.53445401	      4.36447791	      5.13957462
      3.19000000	    -11.40607578	     -2.67122000	     -6.96534982	     -1.27863045	     -0.01743891	     -0.23408927	      6.70923722	      5.84667000	      5.96523988	    -10.68936484	      6.03893124	    -10.57490409	      9.54499762	     38.98088440	     -8.08430533	     -7.73074958	    -52.96194772	     -5.03348687	     -6.16507557	     12.85287737	      5.47799034	      4.24335721	      5.41258928
      3.19500000	    -11.38720983	     -2.56862207	     -7.18954838	     -1.27159572	     -0.01812575	     -0.23377707	      6.06920519	      5.68785794	      6.07680319	    -10.35512495	      6.34669308	    -10.36209171	      9.70467190	     39.35630626	     -8.11843655	     -7.78149401	    -51.62138250	     -4.81136108	     -5.75102939	     12.92728869	      5.39187263	      4.12030247	      5.73964667
      3.20000000	    -11.39667297	     -2.46413278	     -7.41781363	     -1.26454993	     -0.01886767	     -0.23347680	      5.46569695	      5.52786956	      6.17908865	    -10.02533185	      6.61109771	    -10.16577672	      9.85393837	     39.72799047	     -8.16636259	     -7.83627669	    -50.21914386	     -4.59925845	     -5.31293313	     12.95997518	      5.33732074	      4.00286185	      6.03608985
      3.20500000	    -11.41748317	     -2.35886691	     -7.63998728	     -1.25750988	     -0.01967857	     -0.23317143	      4.87990756	      5.36793654	      6.27937639	     -9.70336189	      6.87223191	     -9.99561981	      9.99619209	     40.08118943	     -8.22041910	     -7.88389630	    -48.76106553	     -4.38774588	     -4.87976941	     12.95108976	      5.29594432	      3.87792119	      6.34153360
      3.21000000	    -11.41223870	     -2.25271302	     -7.87239510	     -1.25050454	     -0.02051413	     -0.23286676	      4.27266175	      5.20201015	      6.37882688	     -9.38612101	      7.14440360	     -9.82490013	     10.16620439	     40.37155902	     -8.28700330	     -7.94653328	    -47.24968985	     -4.17553237	     -4.46587470	     12.87035121	      5.21928995	      3.74773331	      6.70770355
      3.21500000	    -11.50040709	     -2.14540915	     -8.05385430	     -1.24345498	     -0.02147826	     -0.23260364	      3.76659387	      5.04504418	      6.44447822	     -9.07181601	      7.35525036	     -9.72955369	     10.25884730	     40.74081890	     -8.33724377	     -7.95798582	    -45.68020908	     -4.01330384	     -4.05574313	     12.79203892	      5.25385968	      3.61827137	      6.95773782
      3.22000000	    -11.47621392	     -2.02265030	     -8.32088617	     -1.23647466	     -0.02236011	     -0.23227313	      3.15723479	      4.85517123	      6.55782942	     -8.77687573	      7.62872829	     -9.54136925	     10.42626515	     40.92267914	     -8.43371846	     -8.09453491	    -44.04904464	     -3.77563544	     -3.68053708	     12.56828860	      5.15318259	      3.47346003	      7.37325489
      3.22500000	    -11.50226432	     -1.88853333	     -8.53597885	     -1.22948425	     -0.02331257	     -0.23199607	      2.61104371	      4.65526747	      6.61349897	     -8.49313223	      7.85944353	     -9.39791062	     10.58248431	     41.13149779	     -8.49052568	     -8.17298642	    -42.35829232	     -3.57938662	     -3.32674761	     12.21512426	      5.11045044	      3.31003244	      7.71463186
      3.23000000	    -11.48727530	     -1.74877259	     -8.63898294	     -1.22241618	     -0.02426833	     -0.23191222	      1.99361216	      4.41888861	      6.51928342	     -8.15282272	      8.05669344	     -9.22414475	     11.01935378	     41.28761659	     -8.45216014	     -8.16454936	    -40.67817793	     -3.16714838	     -2.88993210	     10.60308186	      5.03807894	      3.12421838	      7.93164775
      3.23500000	    -11.64005110	     -1.62982329	     -8.90159489	     -1.21547372	     -0.02543426	     -0.23152813	      1.61200591	      4.26477074	      6.59790907	     -7.91788969	      8.26838399	     -9.11484732	     11.09097442	     41.57158870	     -8.60891180	     -8.31737060	    -38.92733858	     -3.04014671	     -2.58660193	     10.35144961	      5.12315577	      2.99416412	      8.33487701
      3.24000000	    -11.62496456	     -1.47989531	     -9.01404127	     -1.20841118	     -0.02643031	     -0.23134624	      1.01759272	      4.02444658	      6.41460196	     -7.62131172	      8.51517173	     -8.85319270	     11.21822987	     41.64231804	     -8.60327108	     -8.38086065	    -37.13561811	     -2.80203967	     -2.27154536	      9.34147522	      5.05066061	      2.78275966	      8.56841263
      3.24500000	    -11.81666739	     -1.33851739	     -9.21597596	     -1.20140958	     -0.02768925	     -0.23102283	      0.66663910	      3.84018185	      6.46118163	     -7.36726642	      8.72198106	     -8.72381842	     11.26102442	     41.91231327	     -8.71078787	     -8.50921754	    -35.32633013	     -2.78848022	     -2.11378223	      9.01106743	      5.19277615	      2.61764195	      8.89536172
      3.25000000	    -11.83571035	     -1.16634064	     -9.40055582	     -1.19445076	     -0.02874032	     -0.23080341	      0.16549273	      3.58230071	      6.29808821	     -7.15620270	      9.00252184	     -8.39499278	     11.33733588	     41.94407833	     -8.74249283	     -8.64418007	    -33.47405508	     -2.73277188	     -2.02585032	      8.33592622	      5.13879311	      2.40118684	      9.24568923
      3.25500000	    -11.83659316	     -1.01955358	     -9.43256219	     -1.18733488	     -0.02984125	     -0.23073254	     -0.38500841	      3.33592025	      5.80094869	     -6.91373201	      9.33391862	     -7.84979986	     11.48076116	     41.98334279	     -8.70270057	     -8.66096659	    -31.73090649	     -2.38273383	     -1.68273885	      6.50036059	      5.08526348	      2.17847920	      9.39025486
      3.26000000	    -12.07569604	     -0.87838914	     -9.59410125	     -1.18032058	     -0.03119606	     -0.23043972	     -0.65627338	      3.16746701	      5.74264215	     -6.70712420	      9.45023523	     -7.81687914	     11.49507871	     42.25092083	     -8.80020817	     -8.75877275	    -29.95575777	     -2.49610862	     -1.70143286	      6.14332392	      5.27406609	      2.01164916	      9.67014810
      3.26500000	    -12.14001344	     -0.73747085	     -9.66472220	     -1.17322365	     -0.03237181	     -0.23044178	     -1.09480485	      2.93565834	      5.16824146	     -6.53272060	      9.75085034	     -7.18826920	     11.83395106	     42.35517354	     -8.78328429	     -8.77647549	    -28.38051003	     -1.88115230	     -1.46098283	      2.60654796	      5.27998265	      1.81991337	      9.87904806
      3.27000000	    -12.25920138	     -0.57309596	     -9.80370639	     -1.16610093	     -0.03362703	     -0.23013667	     -1.48529562	      2.72220858	      4.96073603	     -6.34526155	      9.88462035	     -7.04506592	     11.86434329	     42.47096063	     -8.84846050	     -8.92699573	    -26.71828533	     -1.98444426	     -1.47229504	      2.36413830	      5.35659233	      1.59122647	     10.14647836
      3.27500000	    -12.20589603	     -0.42887599	     -9.84607982	     -1.15889089	     -0.03471940	     -0.23009354	     -2.04420535	      2.47429831	      4.21902278	     -6.19622130	     10.20236816	     -6.30708882	     12.07769173	     42.41880557	     -8.82005012	     -9.00134500	    -25.16905157	     -1.94653981	     -1.52073648	      1.43150875	      5.24889450	      1.35416633	     10.31894625
      3.28000000	    -12.23903584	     -0.27108116	     -9.92332835	     -1.15163698	     -0.03590642	     -0.23002300	     -2.48756977	      2.23466438	      3.59371137	     -6.08825662	     10.43687322	     -5.73409203	     12.32704767	     42.46656792	     -8.81428960	     -9.09815866	    -23.73614177	     -1.86380725	     -1.58962278	      0.15338868	      5.24071170	      1.12415896	     10.51915714
